<svg xmlns="http://www.w3.org/2000/svg" xmlns:xlink="http://www.w3.org/1999/xlink" width="500" zoomAndPan="magnify" viewBox="0 0 375 374.999991" height="500" preserveAspectRatio="xMidYMid meet" version="1.0"><defs><g/><clipPath id="1fe560ed09"><path d="M 4.003906 150.882812 L 201.953125 150.882812 L 201.953125 224.113281 L 4.003906 224.113281 Z M 4.003906 150.882812 " clip-rule="nonzero"/></clipPath><clipPath id="131f763416"><path d="M 53.863281 150.882812 L 195.578125 150.882812 C 197.730469 150.882812 199.714844 152.035156 200.78125 153.90625 C 201.84375 155.773438 201.824219 158.066406 200.730469 159.917969 L 168.066406 215.078125 C 164.75 220.679688 158.722656 224.113281 152.214844 224.113281 L 10.5 224.113281 C 8.351562 224.113281 6.363281 222.960938 5.300781 221.089844 C 4.234375 219.222656 4.253906 216.929688 5.351562 215.078125 L 38.015625 159.917969 C 41.332031 154.316406 47.355469 150.882812 53.863281 150.882812 Z M 53.863281 150.882812 " clip-rule="nonzero"/></clipPath></defs><g clip-path="url(#1fe560ed09)"><g clip-path="url(#131f763416)"><path fill="#000000" d="M 0 150.882812 L 205.957031 150.882812 L 205.957031 224.113281 L 0 224.113281 Z M 0 150.882812 " fill-opacity="1" fill-rule="nonzero"/></g></g><g fill="#ffffff" fill-opacity="1"><g transform="translate(18.61632, 211.787328)"><g><path d="M 20.90625 -43.65625 C 27.363281 -43.65625 33.035156 -42.054688 37.921875 -38.859375 L 33.796875 -30.28125 C 31.535156 -31.59375 29.109375 -32.671875 26.515625 -33.515625 C 23.929688 -34.359375 21.753906 -34.78125 19.984375 -34.78125 C 16.816406 -34.78125 15.234375 -33.734375 15.234375 -31.640625 C 15.234375 -30.285156 16.015625 -29.195312 17.578125 -28.375 C 19.140625 -27.550781 21.039062 -26.835938 23.28125 -26.234375 C 25.519531 -25.640625 27.757812 -24.921875 30 -24.078125 C 32.238281 -23.234375 34.140625 -21.863281 35.703125 -19.96875 C 37.265625 -18.082031 38.046875 -15.703125 38.046875 -12.828125 C 38.046875 -8.671875 36.421875 -5.429688 33.171875 -3.109375 C 29.929688 -0.785156 25.800781 0.375 20.78125 0.375 C 17.207031 0.375 13.671875 -0.238281 10.171875 -1.46875 C 6.679688 -2.707031 3.640625 -4.394531 1.046875 -6.53125 L 5.296875 -14.984375 C 7.484375 -13.097656 10.054688 -11.546875 13.015625 -10.328125 C 15.972656 -9.117188 18.601562 -8.515625 20.90625 -8.515625 C 22.675781 -8.515625 24.050781 -8.832031 25.03125 -9.46875 C 26.019531 -10.101562 26.515625 -11.035156 26.515625 -12.265625 C 26.515625 -13.460938 25.945312 -14.460938 24.8125 -15.265625 C 23.6875 -16.066406 22.28125 -16.660156 20.59375 -17.046875 C 18.90625 -17.441406 17.078125 -17.96875 15.109375 -18.625 C 13.140625 -19.28125 11.3125 -20 9.625 -20.78125 C 7.9375 -21.5625 6.523438 -22.804688 5.390625 -24.515625 C 4.265625 -26.222656 3.703125 -28.269531 3.703125 -30.65625 C 3.703125 -34.601562 5.273438 -37.753906 8.421875 -40.109375 C 11.566406 -42.472656 15.726562 -43.65625 20.90625 -43.65625 Z M 20.90625 -43.65625 "/></g></g></g><g fill="#ffffff" fill-opacity="1"><g transform="translate(54.815392, 211.787328)"><g><path d="M 32.4375 0 L 21.03125 -16.953125 L 15.296875 -10.609375 L 15.296875 0 L 4.3125 0 L 4.3125 -43.171875 L 15.296875 -43.171875 L 15.296875 -24.484375 L 31.828125 -43.171875 L 44.53125 -43.171875 L 28.5 -25.28125 L 45.578125 0 Z M 32.4375 0 "/></g></g></g><g fill="#ffffff" fill-opacity="1"><g transform="translate(97.36632, 211.787328)"><g><path d="M 15.296875 0 L 4.3125 0 L 4.3125 -43.171875 L 15.296875 -43.171875 Z M 15.296875 0 "/></g></g></g><g fill="#ffffff" fill-opacity="1"><g transform="translate(113.461447, 211.787328)"><g><path d="M 15.296875 -9.1875 L 33.609375 -9.1875 L 33.609375 0 L 4.3125 0 L 4.3125 -43.171875 L 15.296875 -43.171875 Z M 15.296875 -9.1875 "/></g></g></g><g fill="#ffffff" fill-opacity="1"><g transform="translate(144.480364, 211.787328)"><g><path d="M 15.296875 -9.1875 L 33.609375 -9.1875 L 33.609375 0 L 4.3125 0 L 4.3125 -43.171875 L 15.296875 -43.171875 Z M 15.296875 -9.1875 "/></g></g></g><g fill="#000000" fill-opacity="1"><g transform="translate(178.857576, 211.787328)"><g><path d="M 18.75 -33.609375 C 22.039062 -33.609375 24.96875 -32.957031 27.53125 -31.65625 C 30.101562 -30.363281 32.109375 -28.53125 33.546875 -26.15625 L 25.90625 -21.53125 C 24.257812 -23.832031 22.019531 -24.984375 19.1875 -24.984375 C 17.125 -24.984375 15.445312 -24.210938 14.15625 -22.671875 C 12.863281 -21.128906 12.21875 -19.101562 12.21875 -16.59375 C 12.21875 -14.039062 12.851562 -11.992188 14.125 -10.453125 C 15.394531 -8.910156 17.082031 -8.140625 19.1875 -8.140625 C 22.300781 -8.140625 24.5625 -9.394531 25.96875 -11.90625 L 33.734375 -7.34375 C 32.378906 -4.875 30.394531 -2.96875 27.78125 -1.625 C 25.164062 -0.289062 22.113281 0.375 18.625 0.375 C 13.488281 0.375 9.347656 -1.175781 6.203125 -4.28125 C 3.054688 -7.382812 1.484375 -11.46875 1.484375 -16.53125 C 1.484375 -21.625 3.078125 -25.742188 6.265625 -28.890625 C 9.453125 -32.035156 13.613281 -33.609375 18.75 -33.609375 Z M 18.75 -33.609375 "/></g></g></g><g fill="#000000" fill-opacity="1"><g transform="translate(209.999818, 211.787328)"><g><path d="M 18.8125 -33.609375 C 24.5625 -33.609375 28.882812 -31.835938 31.78125 -28.296875 C 34.6875 -24.765625 35.953125 -19.914062 35.578125 -13.75 L 12.21875 -13.75 C 12.75 -11.78125 13.691406 -10.257812 15.046875 -9.1875 C 16.398438 -8.113281 18.066406 -7.578125 20.046875 -7.578125 C 23.085938 -7.578125 25.738281 -8.710938 28 -10.984375 L 33.609375 -5.484375 C 30.035156 -1.578125 25.207031 0.375 19.125 0.375 C 13.738281 0.375 9.453125 -1.164062 6.265625 -4.25 C 3.078125 -7.332031 1.484375 -11.425781 1.484375 -16.53125 C 1.484375 -21.664062 3.078125 -25.796875 6.265625 -28.921875 C 9.453125 -32.046875 13.632812 -33.609375 18.8125 -33.609375 Z M 12.03125 -19.484375 L 25.34375 -19.484375 C 25.34375 -21.503906 24.753906 -23.128906 23.578125 -24.359375 C 22.410156 -25.585938 20.863281 -26.203125 18.9375 -26.203125 C 17.125 -26.203125 15.597656 -25.597656 14.359375 -24.390625 C 13.128906 -23.179688 12.351562 -21.546875 12.03125 -19.484375 Z M 12.03125 -19.484375 "/></g></g></g><g fill="#000000" fill-opacity="1"><g transform="translate(243.608813, 211.787328)"><g><path d="M 23.625 -9.1875 L 25.71875 -1.78125 C 23.125 -0.257812 20.164062 0.5 16.84375 0.5 C 13.550781 0.5 10.882812 -0.414062 8.84375 -2.25 C 6.8125 -4.082031 5.796875 -6.679688 5.796875 -10.046875 L 5.796875 -24.734375 L 1.171875 -24.734375 L 1.171875 -31.703125 L 5.796875 -31.703125 L 5.796875 -40.953125 L 16.40625 -40.953125 L 16.40625 -31.765625 L 25.09375 -31.765625 L 25.09375 -24.734375 L 16.40625 -24.734375 L 16.40625 -11.71875 C 16.40625 -10.445312 16.660156 -9.507812 17.171875 -8.90625 C 17.691406 -8.3125 18.460938 -8.035156 19.484375 -8.078125 C 20.472656 -8.078125 21.851562 -8.445312 23.625 -9.1875 Z M 23.625 -9.1875 "/></g></g></g><g fill="#000000" fill-opacity="1"><g transform="translate(266.919159, 211.787328)"><g><path d="M 18.8125 -33.609375 C 24.5625 -33.609375 28.882812 -31.835938 31.78125 -28.296875 C 34.6875 -24.765625 35.953125 -19.914062 35.578125 -13.75 L 12.21875 -13.75 C 12.75 -11.78125 13.691406 -10.257812 15.046875 -9.1875 C 16.398438 -8.113281 18.066406 -7.578125 20.046875 -7.578125 C 23.085938 -7.578125 25.738281 -8.710938 28 -10.984375 L 33.609375 -5.484375 C 30.035156 -1.578125 25.207031 0.375 19.125 0.375 C 13.738281 0.375 9.453125 -1.164062 6.265625 -4.25 C 3.078125 -7.332031 1.484375 -11.425781 1.484375 -16.53125 C 1.484375 -21.664062 3.078125 -25.796875 6.265625 -28.921875 C 9.453125 -32.046875 13.632812 -33.609375 18.8125 -33.609375 Z M 12.03125 -19.484375 L 25.34375 -19.484375 C 25.34375 -21.503906 24.753906 -23.128906 23.578125 -24.359375 C 22.410156 -25.585938 20.863281 -26.203125 18.9375 -26.203125 C 17.125 -26.203125 15.597656 -25.597656 14.359375 -24.390625 C 13.128906 -23.179688 12.351562 -21.546875 12.03125 -19.484375 Z M 12.03125 -19.484375 "/></g></g></g><g fill="#000000" fill-opacity="1"><g transform="translate(300.528152, 211.787328)"><g><path d="M 14.921875 -33.234375 L 14.921875 -27.625 C 17.265625 -31.613281 20.863281 -33.648438 25.71875 -33.734375 L 25.71875 -24.109375 C 22.675781 -24.398438 20.1875 -23.894531 18.25 -22.59375 C 16.320312 -21.300781 15.210938 -19.460938 14.921875 -17.078125 L 14.921875 0 L 4.25 0 L 4.25 -33.234375 Z M 14.921875 -33.234375 "/></g></g></g><g fill="#000000" fill-opacity="1"><g transform="translate(323.345149, 211.787328)"><g><path d="M 19.1875 -33.734375 C 23.75 -33.734375 27.289062 -32.671875 29.8125 -30.546875 C 32.34375 -28.429688 33.628906 -25.484375 33.671875 -21.703125 L 33.671875 0 L 23.25 0 L 23.25 -3.828125 C 21.070312 -0.941406 17.679688 0.5 13.078125 0.5 C 9.578125 0.5 6.800781 -0.460938 4.75 -2.390625 C 2.695312 -4.328125 1.671875 -6.835938 1.671875 -9.921875 C 1.671875 -13.085938 2.769531 -15.546875 4.96875 -17.296875 C 7.164062 -19.046875 10.320312 -19.941406 14.4375 -19.984375 L 23.1875 -19.984375 L 23.1875 -20.46875 C 23.1875 -22.113281 22.640625 -23.398438 21.546875 -24.328125 C 20.460938 -25.253906 18.851562 -25.71875 16.71875 -25.71875 C 13.71875 -25.71875 10.40625 -24.789062 6.78125 -22.9375 L 3.765625 -29.96875 C 9.148438 -32.476562 14.289062 -33.734375 19.1875 -33.734375 Z M 16.34375 -6.71875 C 18.03125 -6.71875 19.507812 -7.140625 20.78125 -7.984375 C 22.050781 -8.828125 22.851562 -9.925781 23.1875 -11.28125 L 23.1875 -14.25 L 16.46875 -14.25 C 13.257812 -14.25 11.65625 -13.054688 11.65625 -10.671875 C 11.65625 -9.429688 12.066406 -8.460938 12.890625 -7.765625 C 13.710938 -7.066406 14.863281 -6.71875 16.34375 -6.71875 Z M 16.34375 -6.71875 "/></g></g></g></svg>